<?xml version="1.0" encoding="UTF-8" standalone="no"?>
<!-- Created with Inkscape (http://www.inkscape.org/) -->

<svg
   xmlns:dc="http://purl.org/dc/elements/1.1/"
   xmlns:cc="http://creativecommons.org/ns#"
   xmlns:rdf="http://www.w3.org/1999/02/22-rdf-syntax-ns#"
   xmlns:svg="http://www.w3.org/2000/svg"
   xmlns="http://www.w3.org/2000/svg"
   version="1.1"
   width="100"
   height="100"
   viewBox="0 0 100 100"
   id="svg2">
  <metadata
     id="metadata44">
    <rdf:RDF>
      <cc:Work
         rdf:about="">
        <dc:format>image/svg+xml</dc:format>
        <dc:type
           rdf:resource="http://purl.org/dc/dcmitype/StillImage" />
        <dc:title></dc:title>
      </cc:Work>
    </rdf:RDF>
  </metadata>
  <defs
     id="defs42">
    <clipPath
       id="clipPath4120">
      <path
         d="m 153.46402,0 c 27.614,0 50,22.385 50,50 0,27.613 -22.386,50 -50,50 -27.614,0 -50,-22.387 -50,-50 0,-27.615 22.386,-50 50,-50 z"
         id="path4122"
         style="fill:#e27c3f;fill-opacity:1" />
    </clipPath>
  </defs>
  <g
     transform="translate(-103.34815,0.11586116)"
     id="g4124">
    <path
       d="m 153.46402,0 c 27.614,0 50,22.385 50,50 0,27.613 -22.386,50 -50,50 -27.614,0 -50,-22.387 -50,-50 0,-27.615 22.386,-50 50,-50 z"
       id="path4"
       style="fill:#e27c3f;fill-opacity:1" />
    <g
       clip-path="url(#clipPath4120)"
       id="g3906">
      <path
         d="m 127.31377,100.11287 c 0,0 -0.23701,-59.368983 -0.11287,-66.817159 0.11287,-6.772009 4.85328,-9.142212 11.28669,-9.142212 6.4344,0 23.02482,-0.225734 30.02257,0 6.99774,0.225734 10.60948,3.49887 10.72235,8.916478 0.134,6.432013 -0.22574,67.494353 -0.22574,67.494353 z"
         id="path3862"
         style="fill:#f3f3f3;fill-opacity:1;stroke:#000000;stroke-width:0;stroke-linecap:butt;stroke-linejoin:miter;stroke-miterlimit:4;stroke-opacity:1;stroke-dasharray:none" />
      <path
         d="M 129.85327,35.080136 H 176.693 V 100.58578 H 129.85327 V 35.080136 z"
         id="path22-5"
         style="fill:#465765" />
      <path
         d="m 172.68623,29.571106 a 1.6930022,1.6930022 0 1 1 -3.38601,0 1.6930022,1.6930022 0 1 1 3.38601,0 z"
         transform="translate(-0.45146727,0.11286682)"
         id="path3864"
         style="fill:#465765;fill-opacity:1;stroke-width:0;stroke-miterlimit:4;stroke-dasharray:none" />
      <path
         d="m 172.68623,29.571106 a 1.6930022,1.6930022 0 1 1 -3.38601,0 1.6930022,1.6930022 0 1 1 3.38601,0 z"
         transform="matrix(0.56448025,0,0,0.56448025,70.087422,12.991667)"
         id="path3864-8"
         style="fill:#465765;fill-opacity:1;stroke-width:0;stroke-miterlimit:4;stroke-dasharray:none" />
      <path
         d="m 172.68623,29.571106 a 1.6930022,1.6930022 0 1 1 -3.38601,0 1.6930022,1.6930022 0 1 1 3.38601,0 z"
         transform="matrix(0.56448025,0,0,0.56448025,66.920493,12.991667)"
         id="path3864-8-0"
         style="fill:#465765;fill-opacity:1;stroke-width:0;stroke-miterlimit:4;stroke-dasharray:none" />
      <rect
         width="11.305818"
         height="1.7204505"
         ry="0.86022526"
         x="147.5491"
         y="28.823748"
         id="rect3904"
         style="fill:#a5a7a7;fill-opacity:1;stroke-width:0;stroke-miterlimit:4;stroke-dasharray:none" />
    </g>
  </g>
</svg>
